HIERARCHY
ROOT Bip001_Pelvis
{
  OFFSET 7.937 94.8971 -8.5489
  CHANNELS 6 Xposition Yposition Zposition Zrotation Xrotation Yrotation
  JOINT Bip001_Spine
  {
    OFFSET 1.44608e-005 10.4157 -0.0118244
    CHANNELS 3 Zrotation Xrotation Yrotation
    JOINT Bip001_L_Thigh
    {
      OFFSET 11.2582 -10.4157 0.0118432
      CHANNELS 3 Zrotation Xrotation Yrotation
      JOINT Bip001_L_Calf
      {
        OFFSET -0.720717 -44.8687 0.366937
        CHANNELS 3 Zrotation Xrotation Yrotation
        JOINT Bip001_L_Foot
        {
          OFFSET -0.664439 -41.3745 -3.62995
          CHANNELS 3 Zrotation Xrotation Yrotation
          JOINT Bip001_L_Toe0
          {
            OFFSET 0.0541047 -10.4146 13.4033
            CHANNELS 3 Zrotation Xrotation Yrotation
            End Site
            {
              OFFSET -1.04503e-005 0 7.70137
            }
          }
        }
      }
    }
    JOINT Bip001_R_Thigh
    {
      OFFSET -11.2582 -10.4156 0.0118122
      CHANNELS 3 Zrotation Xrotation Yrotation
      JOINT Bip001_R_Calf
      {
        OFFSET 0.72059 -44.8687 0.36676
        CHANNELS 3 Zrotation Xrotation Yrotation
        JOINT Bip001_R_Foot
        {
          OFFSET 0.664321 -41.3745 -3.62979
          CHANNELS 3 Zrotation Xrotation Yrotation
          JOINT Bip001_R_Toe0
          {
            OFFSET -0.05417 -10.4146 13.4033
            CHANNELS 3 Zrotation Xrotation Yrotation
            End Site
            {
              OFFSET -1.04873e-005 0 7.70137
            }
          }
        }
      }
    }
    JOINT Bip001_Spine1
    {
      OFFSET 1.90638e-005 14.8539 1.10727
      CHANNELS 3 Zrotation Xrotation Yrotation
      JOINT Bip001_Spine2
      {
        OFFSET 2.28934e-005 14.7848 -1.7233
        CHANNELS 3 Zrotation Xrotation Yrotation
        JOINT Bip001_Neck
        {
          OFFSET 2.24514e-005 15.6905 -0.498826
          CHANNELS 3 Zrotation Xrotation Yrotation
          JOINT Bip001_L_Clavicle
          {
            OFFSET 6.17691 -0.000591152 0.00852867
            CHANNELS 3 Zrotation Xrotation Yrotation
            JOINT Bip001_L_UpperArm
            {
              OFFSET 11.773 -0.0611878 0.00197697
              CHANNELS 3 Zrotation Xrotation Yrotation
              JOINT Bip001_L_Forearm
              {
                OFFSET 26.4515 0.0817568 -2.19579
                CHANNELS 3 Zrotation Xrotation Yrotation
                JOINT Bip001_L_Hand
                {
                  OFFSET 32.8677 0.156744 1.67112
                  CHANNELS 3 Zrotation Xrotation Yrotation
                  JOINT Bip001_L_Finger0
                  {
                    OFFSET 6.16268 -2.25226 6.01674
                    CHANNELS 3 Zrotation Xrotation Yrotation
                    End Site
                    {
                      OFFSET 4.30499 -1.46662 0.618148
                    }
                  }
                  JOINT Bip001_L_Finger1
                  {
                    OFFSET 11.2957 -0.718374 -0.201963
                    CHANNELS 3 Zrotation Xrotation Yrotation
                    End Site
                    {
                      OFFSET 6.31952 -0.405163 -0.0802303
                    }
                  }
                }
              }
            }
          }
          JOINT Bip001_R_Clavicle
          {
            OFFSET -6.17691 -0.000574027 0.00851165
            CHANNELS 3 Zrotation Xrotation Yrotation
            JOINT Bip001_R_UpperArm
            {
              OFFSET -11.773 -0.0611516 0.00194365
              CHANNELS 3 Zrotation Xrotation Yrotation
              JOINT Bip001_R_Forearm
              {
                OFFSET -26.4514 0.0822334 -2.19736
                CHANNELS 3 Zrotation Xrotation Yrotation
                JOINT Bip001_R_Hand
                {
                  OFFSET -32.8677 0.156817 1.67144
                  CHANNELS 3 Zrotation Xrotation Yrotation
                  JOINT Bip001_R_Finger0
                  {
                    OFFSET -6.1627 -2.25224 6.0167
                    CHANNELS 3 Zrotation Xrotation Yrotation
                    End Site
                    {
                      OFFSET -4.30499 -1.46662 0.618134
                    }
                  }
                  JOINT Bip001_R_Finger1
                  {
                    OFFSET -11.2958 -0.718344 -0.201994
                    CHANNELS 3 Zrotation Xrotation Yrotation
                    End Site
                    {
                      OFFSET -6.31952 -0.405146 -0.0802475
                    }
                  }
                }
              }
            }
          }
          JOINT Bip001_Head
          {
            OFFSET 1.11782e-005 11.4912 2.09908
            CHANNELS 3 Zrotation Xrotation Yrotation
            End Site
            {
              OFFSET 2.95144e-005 21.2823 -2.83069e-005
            }
          }
        }
      }
    }
  }
}
MOTION
Frames:	6
Frame Time:	0.04
6.41404 95.6612 -8.39298 -0.250962 -2.74228 3.75947 0.0212991 1.07003 0.127216 6.63439 -6.31658 7.99435 -1.25283 13.7426 -1.95215 -3.55008 -4.82044 -1.00055 0.580851 -9.88546 0.172165 -6.8043 -3.30327 -0.691658 0.500388 13.7639 1.05784 0.493168 -7.90725 -10.8598 -1.11935 -11.4182 0.414697 -0.112352 2.17245 0.251144 -0.112352 2.17245 0.251146 -1.13147 -1.99411 -1.48037 -28.4695 7.51183 -11.8272 -53.5743 40.61 9.32854 14.3897 2.88892 -26.8162 -4.67925 -0.466186 -0.131696 0 0 -0 1.59028e-015 -3.18056e-015 -1.59028e-015 34.0515 9.63887 14.4056 57.2607 35.9786 -17.8414 3.62619 -31.6599 27.8791 9.99178 -0.934246 -21.4406 -7.95139e-016 -3.18055e-015 1.59028e-015 -7.95139e-016 -3.18056e-015 1.59028e-015 -1.56628 -0.417619 -1.41802 
6.4446 95.6506 -8.39426 -0.246849 -2.72738 3.86597 0.0226064 1.07003 0.0255322 6.63717 -6.39597 8.01455 -1.26348 13.8443 -1.98093 -3.51712 -4.85998 -1.00098 0.582952 -9.884 0.184431 -6.80758 -3.32662 -0.520642 0.524321 13.8121 0.95401 0.508431 -7.94459 -10.909 -1.11121 -11.4183 0.390608 -0.135367 2.14335 0.049022 -0.135366 2.14335 0.0490197 -1.17937 -1.8245 -1.27831 -28.3909 7.36081 -11.8082 -53.5538 41.174 9.39334 14.1936 2.78375 -26.402 -4.68984 -0.556166 -0.352842 -1.59028e-015 -3.18055e-015 1.59028e-015 -8.82782e-032 3.18056e-015 1.59028e-015 33.7859 9.22367 14.0886 57.6006 36.0949 -18.0992 3.29989 -32.486 29.4829 8.41737 -1.08644 -19.3203 0 0 -0 -3.97569e-016 0 -0 -1.50269 -0.462364 -1.25088 
6.45937 95.6374 -8.38443 -0.269358 -2.76557 3.88607 0.022677 1.06638 -0.000395191 6.67463 -6.40441 8.01253 -1.30238 13.9687 -2.04812 -3.47625 -4.94567 -0.95755 0.58739 -9.87547 0.217107 -6.79608 -3.29915 -0.532229 0.510962 13.8635 0.994479 0.513027 -7.98173 -10.9167 -1.10822 -11.4183 0.382058 -0.121599 2.13061 -0.00816018 -0.121599 2.13061 -0.00816149 -1.34192 -1.78833 -1.20897 -28.2915 7.36896 -11.8633 -54.225 41.4146 10.1254 14.4998 2.78453 -26.0778 -4.80003 -0.581489 -0.244431 -1.59028e-015 0 -1.59028e-015 -4.41391e-032 -3.18056e-015 -7.95139e-016 33.6181 9.02577 13.883 56.4107 34.5171 -17.5304 2.83119 -30.2347 31.0494 7.18108 -0.606283 -19.5009 -3.97569e-016 3.18055e-015 1.59028e-015 -8.82782e-032 3.18056e-015 1.59028e-015 -1.45135 -0.383223 -1.23887 
6.4649 95.6565 -8.37211 -0.318114 -2.80986 3.83085 0.0316787 1.05946 0.0235372 6.6971 -6.31409 7.98568 -1.28227 13.917 -1.70749 -3.51895 -4.91296 -1.21465 0.576388 -9.88642 0.177784 -6.73451 -3.13885 4.69568 1.82527 13.4175 -1.91588 0.162362 -7.87165 -13.2593 -1.22284 -11.3341 0.261259 -0.105778 2.12461 0.0429903 -0.0994523 2.1246 0.0434768 -1.58994 -1.80889 -1.20449 -28.0608 7.40044 -11.8818 -53.6384 41.5185 9.38393 13.84 2.97936 -25.2057 -5.0398 -0.612987 -0.280012 -1.59028e-015 0 -0 -1.59028e-015 -3.18056e-015 2.38542e-015 33.4524 9.02337 14.023 55.4086 31.8699 -17.5153 1.32257 -26.9614 34.2885 6.44715 0.143498 -22.3175 7.95139e-016 -6.36111e-015 2.78298e-015 3.97569e-016 -6.36111e-015 1.98785e-015 -1.36024 -0.291942 -1.323 
6.45639 95.6156 -8.35405 -0.363535 -2.81458 3.79431 0.0183217 1.04934 0.0901185 6.76183 -6.46863 8.19951 -1.15782 14.2921 -2.02285 -3.57313 -5.11766 -1.18104 0.597007 -9.88749 0.184087 -6.73379 -3.23143 -1.24059 0.380188 13.8896 1.1964 0.657207 -8.01884 -10.4316 -1.17359 -11.4198 0.444065 -0.138967 2.09855 0.177037 -0.138967 2.09855 0.177036 -1.60329 -1.84028 -1.26755 -27.8553 7.40275 -11.886 -53.8027 41.3361 9.49469 13.7971 3.17692 -24.8945 -5.1144 -0.698535 -0.280781 -3.18055e-015 3.18055e-015 1.59028e-015 -4.77083e-015 6.36111e-015 3.18055e-015 33.0816 9.03209 14.1145 54.1898 28.0107 -17.7159 0.111513 -23.634 40.8903 4.73498 0.969517 -24.7546 1.98785e-015 6.36111e-015 1.39149e-015 1.39149e-015 0 7.95139e-016 -1.23791 -0.229187 -1.41401 
6.44009 95.618 -8.33233 -0.41141 -2.786 3.8763 0.00230933 1.02726 0.162272 6.89147 -6.51205 8.13246 -1.26876 14.3595 -1.7385 -3.53374 -5.13414 -1.49319 0.569063 -9.88824 0.143214 -6.66391 -3.15286 -2.74315 -0.000206575 13.8253 1.78165 0.834089 -7.99468 -9.67723 -1.18486 -11.4424 0.514096 -0.175539 2.05427 0.321566 -0.175539 2.05427 0.321566 -1.85237 -1.9084 -1.36048 -27.5054 7.46298 -11.9204 -53.8179 41.0564 9.6737 13.6743 2.99519 -24.8432 -5.05088 -0.465299 -0.388727 -3.18055e-015 3.18055e-015 2.38542e-015 -1.59028e-015 -3.18056e-015 3.18055e-015 32.9362 9.11268 14.2863 52.4566 21.8998 -18.5726 -0.211969 -19.1088 52.5387 -0.123789 2.36744 -24.222 0 0 -1.59028e-015 -0 0 1.59028e-015 -0.887482 -0.130256 -1.64972 
